<svg xmlns="http://www.w3.org/2000/svg" xmlns:xlink="http://www.w3.org/1999/xlink" width="40" height="47" viewBox="0 0 40 47"><defs><linearGradient id="a" x1="0.5" x2="0.5" y2="1" gradientUnits="objectBoundingBox"><stop offset="0" stop-color="#c6a9f6"/><stop offset="0.468" stop-color="#7ea7f6"/><stop offset="1" stop-color="#3c4bff"/></linearGradient><clipPath id="c"><rect width="28" height="34" transform="translate(2027.531 2364.598)" stroke="#707070" stroke-width="1" fill="url(#a)"/></clipPath><linearGradient id="d" x1="0.5" y1="0.265" x2="0.5" y2="0.789" gradientUnits="objectBoundingBox"><stop offset="0" stop-color="#c4a9f6"/><stop offset="0.291" stop-color="#b1b4f6"/><stop offset="0.488" stop-color="#7ed1f6"/><stop offset="0.695" stop-color="#3583d1"/><stop offset="1" stop-color="#0b56bc"/></linearGradient><clipPath id="e"><rect width="17" height="20" transform="translate(2026.531 2364.219)" stroke="#707070" stroke-width="1" fill="url(#a)"/></clipPath></defs><g transform="translate(-11290 496)"><g transform="translate(9274.469 -2860.598)" clip-path="url(#c)"><path d="M44.366,69,15.643,69a13.187,13.187,0,0,0,10.149-5.052A19,19,0,0,0,30,51.95a19.016,19.016,0,0,0,4.209,12A13.185,13.185,0,0,0,44.366,69h0ZM15.633,69,0,69V0H15.623A13.186,13.186,0,0,0,5.475,5.052a19.021,19.021,0,0,0-4.208,12.2,19.019,19.019,0,0,0,4.208,12.2,13.219,13.219,0,0,0,10,5.051,13.227,13.227,0,0,0-10,5.054,19.021,19.021,0,0,0-4.208,12.2,19.021,19.021,0,0,0,4.208,12.2A13.185,13.185,0,0,0,15.633,69h0ZM60,69H44.378a13.187,13.187,0,0,0,10.147-5.052,19.02,19.02,0,0,0,4.208-12.2,19.02,19.02,0,0,0-4.208-12.2A13.22,13.22,0,0,0,44.519,34.5a13.229,13.229,0,0,0,10.005-5.053,19.019,19.019,0,0,0,4.208-12.2,19.02,19.02,0,0,0-4.208-12.2A13.186,13.186,0,0,0,44.366,0H60ZM30,51.547h0a19,19,0,0,0-4.207-12A13.22,13.22,0,0,0,15.787,34.5a13.229,13.229,0,0,0,10.005-5.053,19,19,0,0,0,4.207-12,19.015,19.015,0,0,0,4.209,12,13.219,13.219,0,0,0,10,5.051,13.227,13.227,0,0,0-10,5.054A19,19,0,0,0,30,51.547Zm0-34.5h0a19,19,0,0,0-4.207-12A13.186,13.186,0,0,0,15.633,0H44.356A13.186,13.186,0,0,0,34.208,5.052,19,19,0,0,0,30,17.048Z" transform="translate(2011.531 2347.598)" fill="url(#d)"/></g><g transform="translate(9263.469 -2833.219)" clip-path="url(#e)"><path d="M25.88,41H9.125a7.643,7.643,0,0,0,5.92-3A11.423,11.423,0,0,0,17.5,30.869,11.431,11.431,0,0,0,19.954,38a7.642,7.642,0,0,0,5.926,3h0ZM9.12,41H0V0H9.114a7.643,7.643,0,0,0-5.92,3A11.436,11.436,0,0,0,.74,10.25,11.435,11.435,0,0,0,3.194,17.5a7.664,7.664,0,0,0,5.836,3,7.668,7.668,0,0,0-5.836,3A11.436,11.436,0,0,0,.74,30.749,11.436,11.436,0,0,0,3.194,38,7.642,7.642,0,0,0,9.12,41h0ZM35,41H25.887a7.643,7.643,0,0,0,5.919-3,11.435,11.435,0,0,0,2.455-7.248A11.435,11.435,0,0,0,31.806,23.5a7.664,7.664,0,0,0-5.836-3,7.669,7.669,0,0,0,5.836-3A11.434,11.434,0,0,0,34.26,10.25,11.435,11.435,0,0,0,31.806,3,7.643,7.643,0,0,0,25.88,0H35ZM17.5,30.629h0A11.423,11.423,0,0,0,15.045,23.5a7.664,7.664,0,0,0-5.836-3,7.669,7.669,0,0,0,5.836-3A11.423,11.423,0,0,0,17.5,10.369,11.43,11.43,0,0,0,19.954,17.5a7.664,7.664,0,0,0,5.836,3,7.668,7.668,0,0,0-5.836,3A11.424,11.424,0,0,0,17.5,30.629Zm0-20.5h0A11.423,11.423,0,0,0,15.045,3,7.643,7.643,0,0,0,9.12,0H25.874a7.643,7.643,0,0,0-5.92,3A11.424,11.424,0,0,0,17.5,10.13Z" transform="translate(2017.531 2354.219)" fill="url(#d)"/></g></g></svg>